<?xml version="1.0" standalone="no"?><!DOCTYPE svg PUBLIC "-//W3C//DTD SVG 1.1//EN" "http://www.w3.org/Graphics/SVG/1.1/DTD/svg11.dtd"><svg t="1652703054023" class="icon" viewBox="0 0 1024 1024" version="1.1" xmlns="http://www.w3.org/2000/svg" p-id="6090" xmlns:xlink="http://www.w3.org/1999/xlink" width="200" height="200"><defs><style type="text/css">@font-face { font-family: feedback-iconfont; src: url("//at.alicdn.com/t/font_1031158_u69w8yhxdu.woff2?t=1630033759944") format("woff2"), url("//at.alicdn.com/t/font_1031158_u69w8yhxdu.woff?t=1630033759944") format("woff"), url("//at.alicdn.com/t/font_1031158_u69w8yhxdu.ttf?t=1630033759944") format("truetype"); }
</style></defs><path d="M810.666667 679.253333c5.12 63.146667-35.84 121.173333-97.28 136.533334-61.44 17.066667-124.586667-13.653333-151.893334-69.973334h-273.066666c-40.96 0-75.093333-34.133333-75.093334-75.093333V372.053333c0-40.96 34.133333-75.093333 75.093334-75.093333h448.853333c20.48 0 39.253333 8.533333 52.906667 22.186667 13.653333 13.653333 22.186667 32.426667 22.186666 52.906666v298.666667c-1.706667 3.413333-1.706667 5.12-1.706666 8.533333z" fill="#5D8EF9" p-id="6091"></path><path d="M680.96 783.36c51.2 0 93.866667-42.666667 93.866667-93.866667s-42.666667-93.866667-93.866667-93.866666-93.866667 42.666667-93.866667 93.866666 40.96 93.866667 93.866667 93.866667z" fill="#FFFFFF" p-id="6092"></path><path d="M672.426667 701.44l52.906666-52.906667c6.826667-6.826667 18.773333-6.826667 25.6 0 6.826667 6.826667 6.826667 18.773333 0 25.6l-78.506666 78.506667-52.906667-52.906667c-5.12-5.12-6.826667-11.946667-5.12-18.773333s6.826667-11.946667 13.653333-13.653333c6.826667-1.706667 13.653333 0 18.773334 5.12l25.6 29.013333z" fill="#2371F5" p-id="6093"></path><path d="M477.866667 462.506667l8.533333-46.08c1.706667-10.24-1.706667-22.186667-8.533333-30.72s-17.066667-13.653333-29.013334-13.653334h-80.213333c-10.24 0-22.186667 5.12-29.013333 13.653334-6.826667 8.533333-10.24 18.773333-8.533334 30.72l8.533334 47.786666-34.133334 151.893334 102.4 58.026666 102.4-58.026666-32.426666-153.6z" fill="#FFFFFF" p-id="6094"></path><path d="M375.466667 447.146667l-6.826667-37.546667h80.213333l-6.826666 37.546667zM348.16 595.626667l25.6-110.933334h71.68l23.893333 110.933334-59.733333 34.133333-61.44-34.133333z" fill="#2371F5" p-id="6095"></path><path d="M587.093333 390.826667c-10.24 0-18.773333 8.533333-18.773333 18.773333 0 10.24 8.533333 18.773333 18.773333 18.773333H699.733333c10.24 0 18.773333-8.533333 18.773334-18.773333 0-10.24-8.533333-18.773333-18.773334-18.773333h-112.64zM587.093333 465.92c-10.24 0-18.773333 8.533333-18.773333 18.773333 0 10.24 8.533333 18.773333 18.773333 18.773334h75.093334c10.24 0 18.773333-8.533333 18.773333-18.773334 0-10.24-8.533333-18.773333-18.773333-18.773333h-75.093334z" fill="#FFFFFF" p-id="6096"></path><path d="M575.146667 237.226667c-13.653333 5.12-23.893333 15.36-27.306667 29.013333v1.706667-1.706667c-3.413333-13.653333-15.36-23.893333-27.306667-27.306667h-1.706666 1.706666c13.653333-3.413333 23.893333-15.36 27.306667-27.306666v-1.706667 1.706667c3.413333 10.24 13.653333 22.186667 27.306667 25.6z" fill="#5D8EF9" p-id="6097"></path><path d="M189.44 477.866667l3.413333 1.706666-3.413333 1.706667c-22.186667 5.12-39.253333 23.893333-44.373333 44.373333v1.706667l-1.706667-3.413333c-5.12-22.186667-23.893333-39.253333-44.373333-44.373334h-3.413334l3.413334-1.706666c22.186667-5.12 39.253333-23.893333 44.373333-44.373334l1.706667-3.413333v3.413333c6.826667 20.48 23.893333 39.253333 44.373333 44.373334zM418.133333 808.96l3.413334 1.706667-3.413334 1.706666c-22.186667 5.12-39.253333 23.893333-44.373333 44.373334l-1.706667 3.413333-1.706666-3.413333c-5.12-22.186667-23.893333-39.253333-44.373334-44.373334l-3.413333-1.706666 3.413333-1.706667c22.186667-5.12 39.253333-23.893333 44.373334-44.373333l1.706666-3.413334 1.706667 3.413334c3.413333 22.186667 22.186667 39.253333 44.373333 44.373333z" fill="#FFBE1B" p-id="6098"></path><path d="M884.053333 312.32h3.413334-3.413334c-17.066667 5.12-29.013333 18.773333-32.426666 34.133333v3.413334-3.413334c-5.12-17.066667-17.066667-29.013333-32.426667-32.426666h-3.413333 3.413333c17.066667-5.12 29.013333-17.066667 32.426667-32.426667v-3.413333 3.413333c1.706667 15.36 15.36 27.306667 32.426666 30.72zM776.533333 192.853333l5.12 1.706667-5.12 1.706667c-27.306667 6.826667-51.2 29.013333-58.026666 58.026666l-1.706667 5.12-1.706667-5.12c-6.826667-27.306667-29.013333-51.2-58.026666-58.026666l-5.12-1.706667 5.12-1.706667c27.306667-6.826667 51.2-29.013333 58.026666-58.026666l1.706667-5.12 1.706667 5.12c6.826667 29.013333 29.013333 49.493333 58.026666 58.026666z" fill="#5D8EF9" p-id="6099"></path></svg>