<?xml version="1.0" standalone="no"?><!DOCTYPE svg PUBLIC "-//W3C//DTD SVG 1.1//EN" "http://www.w3.org/Graphics/SVG/1.1/DTD/svg11.dtd"><svg t="1652702930518" class="icon" viewBox="0 0 1070 1024" version="1.1" xmlns="http://www.w3.org/2000/svg" p-id="4641" xmlns:xlink="http://www.w3.org/1999/xlink" width="208.984375" height="200"><defs><style type="text/css">@font-face { font-family: feedback-iconfont; src: url("//at.alicdn.com/t/font_1031158_u69w8yhxdu.woff2?t=1630033759944") format("woff2"), url("//at.alicdn.com/t/font_1031158_u69w8yhxdu.woff?t=1630033759944") format("woff"), url("//at.alicdn.com/t/font_1031158_u69w8yhxdu.ttf?t=1630033759944") format("truetype"); }
</style></defs><path d="M289.365486 979.36715h-44.508177a22.316425 22.316425 0 0 0 0 44.63285h44.508177a22.316425 22.316425 0 0 0 0-44.63285zM378.38184 890.350797H200.349132a22.316425 22.316425 0 1 0 0 44.508176h178.032708a22.316425 22.316425 0 1 0 0-44.508176zM356.190088 823.650868a22.316425 22.316425 0 0 0-22.316425-22.316425H200.349132a22.316425 22.316425 0 1 0 0 44.508177h133.524531a22.316425 22.316425 0 0 0 22.316425-22.191752z" fill="#CCD1D9" p-id="4642"></path><path d="M467.398194 712.318089h-311.681911a22.316425 22.316425 0 1 0 0 44.508177h311.681911a22.316425 22.316425 0 1 0 0-44.508177zM556.414548 623.426408H200.349132a22.316425 22.316425 0 1 0 0 44.508177h356.065416a22.316425 22.316425 0 1 0 0-44.508177zM645.430901 534.285381H289.365486a22.316425 22.316425 0 1 0 0 44.508177h356.065415a22.316425 22.316425 0 1 0 0-44.508177z" fill="#AAB2BC" p-id="4643"></path><path d="M779.080105 445.269028h-623.363822a22.316425 22.316425 0 1 0 0 44.508176h623.363822a22.316425 22.316425 0 0 0 0-44.508176zM66.824602 400.760851h623.363822a22.316425 22.316425 0 0 0 0-44.508177h-623.363822a22.316425 22.316425 0 1 0 0 44.508177zM779.080105 267.111647h-623.363822a22.316425 22.316425 0 1 0 0 44.508177h623.363822a22.316425 22.316425 0 0 0 0-44.508177z" fill="#656D78" p-id="4644"></path><path d="M912.604636 222.60347a22.316425 22.316425 0 0 0 0-44.508177H200.349132a22.316425 22.316425 0 1 0 0 44.508177zM690.063751 89.07894H111.332779a22.316425 22.316425 0 1 0 0 44.508176h578.730972a22.316425 22.316425 0 0 0 0-44.508176zM1046.129166 0.062586H22.316425a22.316425 22.316425 0 1 0 0 44.508177h1023.812741a22.316425 22.316425 0 1 0 0-44.508177z" fill="#434A54" p-id="4645"></path></svg>